<mxfile host="Electron" modified="2023-09-28T08:41:27.011Z" agent="Mozilla/5.0 (Windows NT 10.0; Win64; x64) AppleWebKit/537.36 (KHTML, like Gecko) draw.io/21.8.2 Chrome/114.0.5735.289 Electron/25.8.1 Safari/537.36" etag="Q0b8YkWm1ihINSjQ0P3o" version="21.8.2" type="device">
  <diagram id="S2neCBsRpVv3uUZJbJsy" name="Page-1">
    <mxGraphModel dx="2564" dy="4916" grid="1" gridSize="10" guides="1" tooltips="1" connect="1" arrows="1" fold="1" page="1" pageScale="1" pageWidth="850" pageHeight="1100" math="0" shadow="0">
      <root>
        <mxCell id="0" />
        <mxCell id="1" parent="0" />
        <mxCell id="w-6Y150PR1b0kR89nEf8-5" value="" style="shape=table;html=1;whiteSpace=wrap;startSize=0;container=1;collapsible=0;childLayout=tableLayout;" parent="1" vertex="1">
          <mxGeometry x="5060" y="-2830" width="120" height="40" as="geometry" />
        </mxCell>
        <mxCell id="w-6Y150PR1b0kR89nEf8-6" value="" style="shape=partialRectangle;html=1;whiteSpace=wrap;collapsible=0;dropTarget=0;pointerEvents=0;fillColor=none;top=0;left=0;bottom=0;right=0;points=[[0,0.5],[1,0.5]];portConstraint=eastwest;" parent="w-6Y150PR1b0kR89nEf8-5" vertex="1">
          <mxGeometry width="120" height="40" as="geometry" />
        </mxCell>
        <mxCell id="w-6Y150PR1b0kR89nEf8-7" value="" style="shape=partialRectangle;html=1;whiteSpace=wrap;connectable=0;overflow=hidden;fillColor=none;top=0;left=0;bottom=0;right=0;" parent="w-6Y150PR1b0kR89nEf8-6" vertex="1">
          <mxGeometry width="60" height="40" as="geometry" />
        </mxCell>
        <mxCell id="w-6Y150PR1b0kR89nEf8-8" value="" style="shape=partialRectangle;html=1;whiteSpace=wrap;connectable=0;overflow=hidden;fillColor=none;top=0;left=0;bottom=0;right=0;" parent="w-6Y150PR1b0kR89nEf8-6" vertex="1">
          <mxGeometry x="60" width="60" height="40" as="geometry" />
        </mxCell>
        <mxCell id="w-6Y150PR1b0kR89nEf8-9" value="" style="shape=table;html=1;whiteSpace=wrap;startSize=0;container=1;collapsible=0;childLayout=tableLayout;" parent="1" vertex="1">
          <mxGeometry x="2170" y="3800" width="60" height="40" as="geometry" />
        </mxCell>
        <mxCell id="w-6Y150PR1b0kR89nEf8-10" value="" style="shape=partialRectangle;html=1;whiteSpace=wrap;collapsible=0;dropTarget=0;pointerEvents=0;fillColor=none;top=0;left=0;bottom=0;right=0;points=[[0,0.5],[1,0.5]];portConstraint=eastwest;" parent="w-6Y150PR1b0kR89nEf8-9" vertex="1">
          <mxGeometry width="60" height="40" as="geometry" />
        </mxCell>
        <mxCell id="w-6Y150PR1b0kR89nEf8-11" value="" style="shape=partialRectangle;html=1;whiteSpace=wrap;connectable=0;overflow=hidden;fillColor=none;top=0;left=0;bottom=0;right=0;" parent="w-6Y150PR1b0kR89nEf8-10" vertex="1">
          <mxGeometry width="60" height="40" as="geometry" />
        </mxCell>
        <mxCell id="qbzug9YVwXigxOFdTIU2-1" value="" style="shape=table;html=1;whiteSpace=wrap;startSize=0;container=1;collapsible=0;childLayout=tableLayout;" parent="1" vertex="1">
          <mxGeometry x="-790" y="545" width="60" height="40" as="geometry" />
        </mxCell>
        <mxCell id="qbzug9YVwXigxOFdTIU2-2" value="" style="shape=partialRectangle;html=1;whiteSpace=wrap;collapsible=0;dropTarget=0;pointerEvents=0;fillColor=none;top=0;left=0;bottom=0;right=0;points=[[0,0.5],[1,0.5]];portConstraint=eastwest;" parent="qbzug9YVwXigxOFdTIU2-1" vertex="1">
          <mxGeometry width="60" height="40" as="geometry" />
        </mxCell>
        <mxCell id="qbzug9YVwXigxOFdTIU2-3" value="" style="shape=partialRectangle;html=1;whiteSpace=wrap;connectable=0;overflow=hidden;fillColor=none;top=0;left=0;bottom=0;right=0;" parent="qbzug9YVwXigxOFdTIU2-2" vertex="1">
          <mxGeometry width="60" height="40" as="geometry" />
        </mxCell>
        <mxCell id="eA9YFj2k0eRvCauKq-A0-1" value="ADMIN" style="rounded=0;whiteSpace=wrap;html=1;" parent="1" vertex="1">
          <mxGeometry x="-460" y="-2750" width="120" height="60" as="geometry" />
        </mxCell>
        <mxCell id="eA9YFj2k0eRvCauKq-A0-32" value="ARCHITECTURE" style="rounded=0;whiteSpace=wrap;html=1;" parent="1" vertex="1">
          <mxGeometry x="-680" y="-2680" width="120" height="60" as="geometry" />
        </mxCell>
        <mxCell id="eA9YFj2k0eRvCauKq-A0-47" value="DESIGNER" style="rounded=0;whiteSpace=wrap;html=1;" parent="1" vertex="1">
          <mxGeometry x="-680" y="-2530" width="120" height="60" as="geometry" />
        </mxCell>
        <mxCell id="eA9YFj2k0eRvCauKq-A0-62" value="CONTRACTOR" style="rounded=0;whiteSpace=wrap;html=1;" parent="1" vertex="1">
          <mxGeometry x="-240" y="-2660" width="120" height="60" as="geometry" />
        </mxCell>
        <mxCell id="eA9YFj2k0eRvCauKq-A0-77" value="CUSTOMER" style="rounded=0;whiteSpace=wrap;html=1;" parent="1" vertex="1">
          <mxGeometry x="-240" y="-2530" width="120" height="60" as="geometry" />
        </mxCell>
        <mxCell id="eA9YFj2k0eRvCauKq-A0-96" value="" style="shape=table;startSize=0;container=1;collapsible=0;childLayout=tableLayout;" parent="1" vertex="1">
          <mxGeometry x="-1060" y="-3430" width="120" height="40" as="geometry" />
        </mxCell>
        <mxCell id="eA9YFj2k0eRvCauKq-A0-97" value="" style="shape=tableRow;horizontal=0;startSize=0;swimlaneHead=0;swimlaneBody=0;strokeColor=inherit;top=0;left=0;bottom=0;right=0;collapsible=0;dropTarget=0;fillColor=none;points=[[0,0.5],[1,0.5]];portConstraint=eastwest;" parent="eA9YFj2k0eRvCauKq-A0-96" vertex="1">
          <mxGeometry width="120" height="40" as="geometry" />
        </mxCell>
        <mxCell id="eA9YFj2k0eRvCauKq-A0-98" value="" style="shape=partialRectangle;html=1;whiteSpace=wrap;connectable=0;strokeColor=inherit;overflow=hidden;fillColor=none;top=0;left=0;bottom=0;right=0;pointerEvents=1;" parent="eA9YFj2k0eRvCauKq-A0-97" vertex="1">
          <mxGeometry width="60" height="40" as="geometry">
            <mxRectangle width="60" height="40" as="alternateBounds" />
          </mxGeometry>
        </mxCell>
        <mxCell id="eA9YFj2k0eRvCauKq-A0-99" value="" style="shape=partialRectangle;html=1;whiteSpace=wrap;connectable=0;strokeColor=inherit;overflow=hidden;fillColor=none;top=0;left=0;bottom=0;right=0;pointerEvents=1;" parent="eA9YFj2k0eRvCauKq-A0-97" vertex="1">
          <mxGeometry x="60" width="60" height="40" as="geometry">
            <mxRectangle width="60" height="40" as="alternateBounds" />
          </mxGeometry>
        </mxCell>
        <mxCell id="eA9YFj2k0eRvCauKq-A0-100" value="" style="shape=table;startSize=0;container=1;collapsible=0;childLayout=tableLayout;" parent="1" vertex="1">
          <mxGeometry x="445" y="-3450" width="120" height="40" as="geometry" />
        </mxCell>
        <mxCell id="eA9YFj2k0eRvCauKq-A0-101" value="" style="shape=tableRow;horizontal=0;startSize=0;swimlaneHead=0;swimlaneBody=0;strokeColor=inherit;top=0;left=0;bottom=0;right=0;collapsible=0;dropTarget=0;fillColor=none;points=[[0,0.5],[1,0.5]];portConstraint=eastwest;" parent="eA9YFj2k0eRvCauKq-A0-100" vertex="1">
          <mxGeometry width="120" height="40" as="geometry" />
        </mxCell>
        <mxCell id="eA9YFj2k0eRvCauKq-A0-102" value="" style="shape=partialRectangle;html=1;whiteSpace=wrap;connectable=0;strokeColor=inherit;overflow=hidden;fillColor=none;top=0;left=0;bottom=0;right=0;pointerEvents=1;" parent="eA9YFj2k0eRvCauKq-A0-101" vertex="1">
          <mxGeometry width="60" height="40" as="geometry">
            <mxRectangle width="60" height="40" as="alternateBounds" />
          </mxGeometry>
        </mxCell>
        <mxCell id="eA9YFj2k0eRvCauKq-A0-103" value="" style="shape=partialRectangle;html=1;whiteSpace=wrap;connectable=0;strokeColor=inherit;overflow=hidden;fillColor=none;top=0;left=0;bottom=0;right=0;pointerEvents=1;" parent="eA9YFj2k0eRvCauKq-A0-101" vertex="1">
          <mxGeometry x="60" width="60" height="40" as="geometry">
            <mxRectangle width="60" height="40" as="alternateBounds" />
          </mxGeometry>
        </mxCell>
        <mxCell id="eA9YFj2k0eRvCauKq-A0-104" value="" style="shape=table;startSize=0;container=1;collapsible=0;childLayout=tableLayout;" parent="1" vertex="1">
          <mxGeometry x="490" y="-1770" width="120" height="40" as="geometry" />
        </mxCell>
        <mxCell id="eA9YFj2k0eRvCauKq-A0-105" value="" style="shape=tableRow;horizontal=0;startSize=0;swimlaneHead=0;swimlaneBody=0;strokeColor=inherit;top=0;left=0;bottom=0;right=0;collapsible=0;dropTarget=0;fillColor=none;points=[[0,0.5],[1,0.5]];portConstraint=eastwest;" parent="eA9YFj2k0eRvCauKq-A0-104" vertex="1">
          <mxGeometry width="120" height="40" as="geometry" />
        </mxCell>
        <mxCell id="eA9YFj2k0eRvCauKq-A0-106" value="" style="shape=partialRectangle;html=1;whiteSpace=wrap;connectable=0;strokeColor=inherit;overflow=hidden;fillColor=none;top=0;left=0;bottom=0;right=0;pointerEvents=1;" parent="eA9YFj2k0eRvCauKq-A0-105" vertex="1">
          <mxGeometry width="60" height="40" as="geometry">
            <mxRectangle width="60" height="40" as="alternateBounds" />
          </mxGeometry>
        </mxCell>
        <mxCell id="eA9YFj2k0eRvCauKq-A0-107" value="" style="shape=partialRectangle;html=1;whiteSpace=wrap;connectable=0;strokeColor=inherit;overflow=hidden;fillColor=none;top=0;left=0;bottom=0;right=0;pointerEvents=1;" parent="eA9YFj2k0eRvCauKq-A0-105" vertex="1">
          <mxGeometry x="60" width="60" height="40" as="geometry">
            <mxRectangle width="60" height="40" as="alternateBounds" />
          </mxGeometry>
        </mxCell>
        <mxCell id="eA9YFj2k0eRvCauKq-A0-108" value="" style="shape=table;startSize=0;container=1;collapsible=0;childLayout=tableLayout;" parent="1" vertex="1">
          <mxGeometry x="-1140" y="-1590" width="120" height="40" as="geometry" />
        </mxCell>
        <mxCell id="eA9YFj2k0eRvCauKq-A0-109" value="" style="shape=tableRow;horizontal=0;startSize=0;swimlaneHead=0;swimlaneBody=0;strokeColor=inherit;top=0;left=0;bottom=0;right=0;collapsible=0;dropTarget=0;fillColor=none;points=[[0,0.5],[1,0.5]];portConstraint=eastwest;" parent="eA9YFj2k0eRvCauKq-A0-108" vertex="1">
          <mxGeometry width="120" height="40" as="geometry" />
        </mxCell>
        <mxCell id="eA9YFj2k0eRvCauKq-A0-110" value="" style="shape=partialRectangle;html=1;whiteSpace=wrap;connectable=0;strokeColor=inherit;overflow=hidden;fillColor=none;top=0;left=0;bottom=0;right=0;pointerEvents=1;" parent="eA9YFj2k0eRvCauKq-A0-109" vertex="1">
          <mxGeometry width="20" height="40" as="geometry">
            <mxRectangle width="20" height="40" as="alternateBounds" />
          </mxGeometry>
        </mxCell>
        <mxCell id="eA9YFj2k0eRvCauKq-A0-111" value="" style="shape=partialRectangle;html=1;whiteSpace=wrap;connectable=0;strokeColor=inherit;overflow=hidden;fillColor=none;top=0;left=0;bottom=0;right=0;pointerEvents=1;" parent="eA9YFj2k0eRvCauKq-A0-109" vertex="1">
          <mxGeometry x="20" width="100" height="40" as="geometry">
            <mxRectangle width="100" height="40" as="alternateBounds" />
          </mxGeometry>
        </mxCell>
        <mxCell id="s8GlSvHh7k3NnPovYgDA-1" value="construction_planner" style="ellipse;whiteSpace=wrap;html=1;" vertex="1" parent="1">
          <mxGeometry x="-470" y="-2590" width="140" height="120" as="geometry" />
        </mxCell>
        <mxCell id="s8GlSvHh7k3NnPovYgDA-2" value="DATABASE" style="shape=cylinder3;whiteSpace=wrap;html=1;boundedLbl=1;backgroundOutline=1;size=15;" vertex="1" parent="1">
          <mxGeometry x="-470" y="-2360" width="140" height="120" as="geometry" />
        </mxCell>
        <mxCell id="s8GlSvHh7k3NnPovYgDA-3" value="" style="endArrow=classic;html=1;rounded=0;entryX=0.564;entryY=-0.033;entryDx=0;entryDy=0;entryPerimeter=0;exitX=0.571;exitY=1;exitDx=0;exitDy=0;exitPerimeter=0;" edge="1" parent="1" source="s8GlSvHh7k3NnPovYgDA-1" target="s8GlSvHh7k3NnPovYgDA-2">
          <mxGeometry width="50" height="50" relative="1" as="geometry">
            <mxPoint x="-530" y="-2480" as="sourcePoint" />
            <mxPoint x="-480" y="-2530" as="targetPoint" />
          </mxGeometry>
        </mxCell>
        <mxCell id="s8GlSvHh7k3NnPovYgDA-5" value="" style="endArrow=classic;html=1;rounded=0;" edge="1" parent="1">
          <mxGeometry width="50" height="50" relative="1" as="geometry">
            <mxPoint x="-400" y="-2360" as="sourcePoint" />
            <mxPoint x="-400.5" y="-2470" as="targetPoint" />
          </mxGeometry>
        </mxCell>
        <mxCell id="s8GlSvHh7k3NnPovYgDA-6" value="" style="endArrow=classic;html=1;rounded=0;exitX=0.571;exitY=1;exitDx=0;exitDy=0;exitPerimeter=0;" edge="1" parent="1">
          <mxGeometry width="50" height="50" relative="1" as="geometry">
            <mxPoint x="-394.75" y="-2690" as="sourcePoint" />
            <mxPoint x="-396" y="-2590" as="targetPoint" />
          </mxGeometry>
        </mxCell>
        <mxCell id="s8GlSvHh7k3NnPovYgDA-7" value="" style="endArrow=classic;html=1;rounded=0;" edge="1" parent="1">
          <mxGeometry width="50" height="50" relative="1" as="geometry">
            <mxPoint x="-405" y="-2590" as="sourcePoint" />
            <mxPoint x="-405.25" y="-2690" as="targetPoint" />
          </mxGeometry>
        </mxCell>
        <mxCell id="s8GlSvHh7k3NnPovYgDA-9" value="" style="endArrow=classic;html=1;rounded=0;entryX=0.071;entryY=0.833;entryDx=0;entryDy=0;entryPerimeter=0;" edge="1" parent="1" target="s8GlSvHh7k3NnPovYgDA-1">
          <mxGeometry width="50" height="50" relative="1" as="geometry">
            <mxPoint x="-560" y="-2490" as="sourcePoint" />
            <mxPoint x="-480" y="-2530" as="targetPoint" />
          </mxGeometry>
        </mxCell>
        <mxCell id="s8GlSvHh7k3NnPovYgDA-10" value="" style="endArrow=classic;html=1;rounded=0;entryX=1;entryY=0.5;entryDx=0;entryDy=0;exitX=0.071;exitY=0.75;exitDx=0;exitDy=0;exitPerimeter=0;" edge="1" parent="1" source="s8GlSvHh7k3NnPovYgDA-1" target="eA9YFj2k0eRvCauKq-A0-47">
          <mxGeometry width="50" height="50" relative="1" as="geometry">
            <mxPoint x="-480" y="-2500" as="sourcePoint" />
            <mxPoint x="-480" y="-2530" as="targetPoint" />
          </mxGeometry>
        </mxCell>
        <mxCell id="s8GlSvHh7k3NnPovYgDA-11" value="" style="endArrow=classic;html=1;rounded=0;entryX=1;entryY=1;entryDx=0;entryDy=0;" edge="1" parent="1">
          <mxGeometry width="50" height="50" relative="1" as="geometry">
            <mxPoint x="-240" y="-2498.86" as="sourcePoint" />
            <mxPoint x="-340.0025253169415" y="-2501.143593128807" as="targetPoint" />
          </mxGeometry>
        </mxCell>
        <mxCell id="s8GlSvHh7k3NnPovYgDA-14" value="" style="endArrow=classic;html=1;rounded=0;entryX=0.071;entryY=0.833;entryDx=0;entryDy=0;entryPerimeter=0;" edge="1" parent="1">
          <mxGeometry width="50" height="50" relative="1" as="geometry">
            <mxPoint x="-330" y="-2510" as="sourcePoint" />
            <mxPoint x="-240" y="-2510" as="targetPoint" />
          </mxGeometry>
        </mxCell>
        <mxCell id="s8GlSvHh7k3NnPovYgDA-15" value="" style="endArrow=classic;html=1;rounded=0;exitX=1;exitY=0.5;exitDx=0;exitDy=0;entryX=0.107;entryY=0.142;entryDx=0;entryDy=0;entryPerimeter=0;" edge="1" parent="1" target="s8GlSvHh7k3NnPovYgDA-1">
          <mxGeometry width="50" height="50" relative="1" as="geometry">
            <mxPoint x="-560" y="-2640" as="sourcePoint" />
            <mxPoint x="-460" y="-2570" as="targetPoint" />
          </mxGeometry>
        </mxCell>
        <mxCell id="s8GlSvHh7k3NnPovYgDA-16" value="" style="endArrow=classic;html=1;rounded=0;entryX=1;entryY=0.75;entryDx=0;entryDy=0;exitX=0.186;exitY=0.092;exitDx=0;exitDy=0;exitPerimeter=0;" edge="1" parent="1" source="s8GlSvHh7k3NnPovYgDA-1">
          <mxGeometry width="50" height="50" relative="1" as="geometry">
            <mxPoint x="-455.580388819832" y="-2590.004630163015" as="sourcePoint" />
            <mxPoint x="-560" y="-2658.53" as="targetPoint" />
          </mxGeometry>
        </mxCell>
        <mxCell id="s8GlSvHh7k3NnPovYgDA-17" value="" style="endArrow=classic;html=1;rounded=0;" edge="1" parent="1" source="s8GlSvHh7k3NnPovYgDA-1">
          <mxGeometry width="50" height="50" relative="1" as="geometry">
            <mxPoint x="-290" y="-2590" as="sourcePoint" />
            <mxPoint x="-240" y="-2640" as="targetPoint" />
          </mxGeometry>
        </mxCell>
        <mxCell id="s8GlSvHh7k3NnPovYgDA-18" value="" style="endArrow=classic;html=1;rounded=0;entryX=0.929;entryY=0.25;entryDx=0;entryDy=0;entryPerimeter=0;exitX=-0.042;exitY=0.633;exitDx=0;exitDy=0;exitPerimeter=0;" edge="1" parent="1" source="eA9YFj2k0eRvCauKq-A0-62" target="s8GlSvHh7k3NnPovYgDA-1">
          <mxGeometry width="50" height="50" relative="1" as="geometry">
            <mxPoint x="-230" y="-2560" as="sourcePoint" />
            <mxPoint x="-230" y="-2630" as="targetPoint" />
          </mxGeometry>
        </mxCell>
        <mxCell id="s8GlSvHh7k3NnPovYgDA-20" value="Response" style="text;html=1;strokeColor=none;fillColor=none;align=center;verticalAlign=middle;whiteSpace=wrap;rounded=0;rotation=35;" vertex="1" parent="1">
          <mxGeometry x="-520" y="-2645" width="60" height="30" as="geometry" />
        </mxCell>
        <mxCell id="s8GlSvHh7k3NnPovYgDA-21" value="Request" style="text;html=1;strokeColor=none;fillColor=none;align=center;verticalAlign=middle;whiteSpace=wrap;rounded=0;" vertex="1" parent="1">
          <mxGeometry x="-540" y="-2490" width="60" height="30" as="geometry" />
        </mxCell>
        <mxCell id="s8GlSvHh7k3NnPovYgDA-22" value="Response" style="text;html=1;strokeColor=none;fillColor=none;align=center;verticalAlign=middle;whiteSpace=wrap;rounded=0;" vertex="1" parent="1">
          <mxGeometry x="-540" y="-2530" width="60" height="30" as="geometry" />
        </mxCell>
        <mxCell id="s8GlSvHh7k3NnPovYgDA-23" value="Request" style="text;html=1;strokeColor=none;fillColor=none;align=center;verticalAlign=middle;whiteSpace=wrap;rounded=0;rotation=30;" vertex="1" parent="1">
          <mxGeometry x="-550" y="-2600" width="60" height="30" as="geometry" />
        </mxCell>
        <mxCell id="s8GlSvHh7k3NnPovYgDA-24" value="Request" style="text;html=1;strokeColor=none;fillColor=none;align=center;verticalAlign=middle;whiteSpace=wrap;rounded=0;rotation=90;" vertex="1" parent="1">
          <mxGeometry x="-400" y="-2430" width="60" height="30" as="geometry" />
        </mxCell>
        <mxCell id="s8GlSvHh7k3NnPovYgDA-25" value="Response" style="text;html=1;strokeColor=none;fillColor=none;align=center;verticalAlign=middle;whiteSpace=wrap;rounded=0;rotation=-90;" vertex="1" parent="1">
          <mxGeometry x="-460" y="-2430" width="60" height="30" as="geometry" />
        </mxCell>
        <mxCell id="s8GlSvHh7k3NnPovYgDA-26" value="Request" style="text;html=1;strokeColor=none;fillColor=none;align=center;verticalAlign=middle;whiteSpace=wrap;rounded=0;" vertex="1" parent="1">
          <mxGeometry x="-320" y="-2500" width="60" height="30" as="geometry" />
        </mxCell>
        <mxCell id="s8GlSvHh7k3NnPovYgDA-27" value="Response" style="text;html=1;strokeColor=none;fillColor=none;align=center;verticalAlign=middle;whiteSpace=wrap;rounded=0;" vertex="1" parent="1">
          <mxGeometry x="-320" y="-2540" width="60" height="30" as="geometry" />
        </mxCell>
        <mxCell id="s8GlSvHh7k3NnPovYgDA-28" value="Request" style="text;html=1;strokeColor=none;fillColor=none;align=center;verticalAlign=middle;whiteSpace=wrap;rounded=0;rotation=90;" vertex="1" parent="1">
          <mxGeometry x="-410" y="-2660" width="60" height="30" as="geometry" />
        </mxCell>
        <mxCell id="s8GlSvHh7k3NnPovYgDA-29" value="Response" style="text;html=1;strokeColor=none;fillColor=none;align=center;verticalAlign=middle;whiteSpace=wrap;rounded=0;rotation=-90;" vertex="1" parent="1">
          <mxGeometry x="-450" y="-2660" width="60" height="30" as="geometry" />
        </mxCell>
        <mxCell id="s8GlSvHh7k3NnPovYgDA-30" value="Response" style="text;html=1;strokeColor=none;fillColor=none;align=center;verticalAlign=middle;whiteSpace=wrap;rounded=0;rotation=-40;" vertex="1" parent="1">
          <mxGeometry x="-330" y="-2630" width="60" height="30" as="geometry" />
        </mxCell>
        <mxCell id="s8GlSvHh7k3NnPovYgDA-31" value="Request" style="text;html=1;strokeColor=none;fillColor=none;align=center;verticalAlign=middle;whiteSpace=wrap;rounded=0;rotation=-30;" vertex="1" parent="1">
          <mxGeometry x="-310" y="-2590" width="60" height="30" as="geometry" />
        </mxCell>
      </root>
    </mxGraphModel>
  </diagram>
</mxfile>
